<svg width="60" height="60" viewBox="0 0 60 60" fill="none" xmlns="http://www.w3.org/2000/svg">
<mask id="path-1-inside-1_305_2" fill="white">
<path fill-rule="evenodd" clip-rule="evenodd" d="M0 0H60V60H0V0ZM50.0898 41.4857C50.0898 43.0041 49.8082 44.3143 49.2449 45.4163C48.6817 46.5184 47.9388 47.4245 47.0164 48.1347C46.0939 48.8449 45.0531 49.3674 43.8939 49.702C42.7347 50.0367 41.5592 50.2041 40.3674 50.2041H33.9021V32.8653H40.1715C41.396 32.8653 42.6041 33.0082 43.7959 33.2939C44.9878 33.5796 46.049 34.0531 46.9796 34.7143C47.9102 35.3755 48.6612 36.2612 49.2327 37.3714C49.8041 38.4816 50.0898 39.8531 50.0898 41.4857ZM17.1184 43.3225L20.8653 50.2041H25.7633L21.2327 42.7837C22.3592 42.4408 23.2408 41.8694 23.8776 41.0694C24.5143 40.2694 24.8327 39.2816 24.8327 38.1061C24.8327 37.1102 24.6449 36.2776 24.2694 35.6082C23.8939 34.9388 23.3918 34.4 22.7633 33.9918C22.1347 33.5837 21.4245 33.2939 20.6327 33.1225C19.8408 32.951 19.0286 32.8653 18.1959 32.8653H11.5837V50.2041H15.698V43.3225H17.1184ZM49.1592 24.1306C48.3918 25.0123 47.4449 25.7102 46.3184 26.2245C45.1918 26.7388 43.8939 26.9959 42.4245 26.9959C41.0857 26.9959 39.849 26.7755 38.7143 26.3347C37.5796 25.8939 36.5959 25.2694 35.7632 24.4612C34.9306 23.6531 34.2775 22.6857 33.8041 21.5592C33.3306 20.4326 33.0939 19.1918 33.0939 17.8367C33.0939 16.449 33.3347 15.1918 33.8163 14.0653C34.2979 12.9388 34.9632 11.9796 35.8122 11.1878C36.6612 10.3959 37.6571 9.78776 38.8 9.36327C39.9428 8.93878 41.1755 8.72653 42.4979 8.72653C43.7224 8.72653 44.9265 8.94286 46.1102 9.37551C47.2939 9.80817 48.253 10.4408 48.9877 11.2735L46.1469 14.1143C45.7551 13.5755 45.2408 13.1755 44.6041 12.9143C43.9673 12.6531 43.3143 12.5225 42.6449 12.5225C41.9102 12.5225 41.2367 12.6571 40.6245 12.9265C40.0122 13.1959 39.4857 13.5673 39.0449 14.0408C38.6041 14.5143 38.2612 15.0735 38.0163 15.7184C37.7714 16.3633 37.649 17.0694 37.649 17.8367C37.649 18.6204 37.7714 19.3388 38.0163 19.9918C38.2612 20.6449 38.6 21.2041 39.0326 21.6694C39.4653 22.1347 39.9837 22.498 40.5877 22.7592C41.1918 23.0204 41.853 23.151 42.5714 23.151C43.4041 23.151 44.1306 22.9878 44.751 22.6612C45.3714 22.3347 45.8694 21.9102 46.2449 21.3878L49.1592 24.1306ZM17.1184 19.649L20.8653 26.5306H25.7633L21.2327 19.1102C22.3592 18.7674 23.2408 18.1959 23.8776 17.3959C24.5143 16.5959 24.8327 15.6082 24.8327 14.4327C24.8327 13.4367 24.6449 12.6041 24.2694 11.9347C23.8939 11.2653 23.3918 10.7265 22.7633 10.3184C22.1347 9.91021 21.4245 9.62042 20.6327 9.44899C19.8408 9.27756 19.0286 9.19184 18.1959 9.19184H11.5837V26.5306H15.698V19.649H17.1184Z"/>
</mask>
<path d="M60 0H62V-2H60V0ZM0 0V-2H-2V0H0ZM60 60V62H62V60H60ZM0 60H-2V62H0V60ZM47.0164 48.1347L48.2364 49.7194L48.2365 49.7194L47.0164 48.1347ZM43.8939 49.702L43.3391 47.7805L43.3391 47.7805L43.8939 49.702ZM33.9021 50.2041H31.9021V52.2041H33.9021V50.2041ZM33.9021 32.8653V30.8653H31.9021V32.8653H33.9021ZM43.7959 33.2939L44.2622 31.349L44.2622 31.349L43.7959 33.2939ZM46.9796 34.7143L48.138 33.0839L48.138 33.0839L46.9796 34.7143ZM49.2327 37.3714L47.4544 38.2867L47.4544 38.2867L49.2327 37.3714ZM20.8653 50.2041L19.1088 51.1605L19.677 52.2041H20.8653V50.2041ZM17.1184 43.3225L18.8749 42.3661L18.3066 41.3225H17.1184V43.3225ZM25.7633 50.2041V52.2041H29.3277L27.4702 49.1619L25.7633 50.2041ZM21.2327 42.7837L20.6503 40.8703L18.1801 41.6221L19.5257 43.8259L21.2327 42.7837ZM24.2694 35.6082L22.5251 36.5867L22.5251 36.5867L24.2694 35.6082ZM22.7633 33.9918L21.6741 35.6692L21.6741 35.6692L22.7633 33.9918ZM20.6327 33.1225L21.0558 31.1677L21.0558 31.1677L20.6327 33.1225ZM11.5837 32.8653V30.8653H9.58368V32.8653H11.5837ZM11.5837 50.2041H9.58368V52.2041H11.5837V50.2041ZM15.698 50.2041V52.2041H17.698V50.2041H15.698ZM15.698 43.3225V41.3225H13.698V43.3225H15.698ZM46.3184 26.2245L47.1489 28.0439L47.1489 28.0439L46.3184 26.2245ZM49.1592 24.1306L50.6678 25.4437L51.9307 23.9926L50.5299 22.6742L49.1592 24.1306ZM38.7143 26.3347L37.99 28.199L37.99 28.199L38.7143 26.3347ZM35.7632 24.4612L37.1562 23.0261L37.1562 23.0261L35.7632 24.4612ZM33.8041 21.5592L35.6478 20.7843L35.6478 20.7843L33.8041 21.5592ZM33.8163 14.0653L35.6553 14.8515L35.6553 14.8515L33.8163 14.0653ZM38.8 9.36327L39.4964 11.2381L39.4964 11.2381L38.8 9.36327ZM46.1102 9.37551L46.7968 7.49706L46.7968 7.49706L46.1102 9.37551ZM48.9877 11.2735L50.402 12.6877L51.7305 11.3591L50.4874 9.95023L48.9877 11.2735ZM46.1469 14.1143L44.5295 15.2906L45.9061 17.1835L47.5611 15.5285L46.1469 14.1143ZM44.6041 12.9143L45.3632 11.064L45.3632 11.064L44.6041 12.9143ZM39.0449 14.0408L37.5811 12.678L37.5811 12.678L39.0449 14.0408ZM38.0163 15.7184L36.1466 15.0083L36.1466 15.0084L38.0163 15.7184ZM38.0163 19.9918L36.1436 20.6941L36.1436 20.6941L38.0163 19.9918ZM39.0326 21.6694L37.568 23.0313L37.568 23.0313L39.0326 21.6694ZM40.5877 22.7592L41.3816 20.9235L41.3816 20.9235L40.5877 22.7592ZM46.2449 21.3878L47.6156 19.9314L45.9532 18.3668L44.6208 20.2205L46.2449 21.3878ZM20.8653 26.5306L19.1088 27.487L19.677 28.5306H20.8653V26.5306ZM17.1184 19.649L18.8749 18.6926L18.3066 17.649H17.1184V19.649ZM25.7633 26.5306V28.5306H29.3277L27.4702 25.4884L25.7633 26.5306ZM21.2327 19.1102L20.6503 17.1969L18.1801 17.9487L19.5257 20.1524L21.2327 19.1102ZM23.8776 17.3959L25.4424 18.6414L25.4424 18.6414L23.8776 17.3959ZM24.2694 11.9347L22.5251 12.9132L22.5251 12.9132L24.2694 11.9347ZM22.7633 10.3184L21.6741 11.9958L21.6741 11.9958L22.7633 10.3184ZM20.6327 9.44899L20.2095 11.4037L20.2095 11.4037L20.6327 9.44899ZM11.5837 9.19184V7.19184H9.58368V9.19184H11.5837ZM11.5837 26.5306H9.58368V28.5306H11.5837V26.5306ZM15.698 26.5306V28.5306H17.698V26.5306H15.698ZM15.698 19.649V17.649H13.698V19.649H15.698ZM60 -2H0V2H60V-2ZM62 60V0H58V60H62ZM0 62H60V58H0V62ZM-2 0V60H2V0H-2ZM51.0258 46.3266C51.7621 44.8859 52.0898 43.2499 52.0898 41.4857H48.0898C48.0898 42.7583 47.8542 43.7427 47.4641 44.5061L51.0258 46.3266ZM48.2365 49.7194C49.4081 48.8174 50.3365 47.6752 51.0258 46.3266L47.4641 44.5061C47.0268 45.3616 46.4695 46.0316 45.7963 46.55L48.2365 49.7194ZM44.4487 51.6236C45.8399 51.2219 47.1081 50.5882 48.2364 49.7194L45.7963 46.55C45.0797 47.1016 44.2663 47.5128 43.3391 47.7805L44.4487 51.6236ZM40.3674 52.2041C41.7492 52.2041 43.1114 52.0097 44.4487 51.6236L43.3391 47.7805C42.358 48.0638 41.3692 48.2041 40.3674 48.2041V52.2041ZM33.9021 52.2041H40.3674V48.2041H33.9021V52.2041ZM31.9021 32.8653V50.2041H35.9021V32.8653H31.9021ZM40.1715 30.8653H33.9021V34.8653H40.1715V30.8653ZM44.2622 31.349C42.9178 31.0267 41.5531 30.8653 40.1715 30.8653V34.8653C41.2388 34.8653 42.2904 34.9896 43.3297 35.2388L44.2622 31.349ZM48.138 33.0839C46.984 32.264 45.6843 31.6899 44.2622 31.349L43.3297 35.2388C44.2913 35.4693 45.114 35.8422 45.8212 36.3447L48.138 33.0839ZM51.011 36.4562C50.3071 35.0886 49.3533 33.9474 48.138 33.0839L45.8212 36.3447C46.4671 36.8036 47.0154 37.4338 47.4544 38.2867L51.011 36.4562ZM52.0898 41.4857C52.0898 39.6291 51.7659 37.9229 51.0109 36.4561L47.4544 38.2867C47.8423 39.0404 48.0898 40.077 48.0898 41.4857H52.0898ZM22.6218 49.2477L18.8749 42.3661L15.3619 44.2788L19.1088 51.1605L22.6218 49.2477ZM25.7633 48.2041H20.8653V52.2041H25.7633V48.2041ZM19.5257 43.8259L24.0563 51.2463L27.4702 49.1619L22.9396 41.7415L19.5257 43.8259ZM22.3127 39.8239C21.9651 40.2607 21.4499 40.627 20.6503 40.8703L21.815 44.697C23.2685 44.2547 24.5166 43.4781 25.4424 42.3149L22.3127 39.8239ZM22.8327 38.1061C22.8327 38.9003 22.6264 39.4298 22.3127 39.8239L25.4424 42.3149C26.4022 41.109 26.8327 39.663 26.8327 38.1061H22.8327ZM22.5251 36.5867C22.6903 36.8811 22.8327 37.3536 22.8327 38.1061H26.8327C26.8327 36.8668 26.5995 35.674 26.0137 34.6297L22.5251 36.5867ZM21.6741 35.6692C22.0242 35.8966 22.3041 36.1928 22.5251 36.5867L26.0137 34.6297C25.4836 33.6848 24.7595 32.9034 23.8525 32.3145L21.6741 35.6692ZM20.2095 35.0772C20.7836 35.2015 21.2648 35.4035 21.6741 35.6692L23.8525 32.3145C23.0046 31.7639 22.0654 31.3863 21.0558 31.1677L20.2095 35.0772ZM18.1959 34.8653C18.8903 34.8653 19.5605 34.9367 20.2095 35.0772L21.0558 31.1677C20.1211 30.9654 19.1669 30.8653 18.1959 30.8653V34.8653ZM11.5837 34.8653H18.1959V30.8653H11.5837V34.8653ZM13.5837 50.2041V32.8653H9.58368V50.2041H13.5837ZM15.698 48.2041H11.5837V52.2041H15.698V48.2041ZM13.698 43.3225V50.2041H17.698V43.3225H13.698ZM17.1184 41.3225H15.698V45.3225H17.1184V41.3225ZM47.1489 28.0439C48.5193 27.4183 49.7021 26.5532 50.6678 25.4437L47.6506 22.8176C47.0816 23.4713 46.3705 24.0021 45.4878 24.4051L47.1489 28.0439ZM42.4245 28.9959C44.1277 28.9959 45.7176 28.6973 47.1489 28.0439L45.4878 24.4051C44.666 24.7803 43.66 24.9959 42.4245 24.9959V28.9959ZM37.99 28.199C39.3776 28.738 40.8627 28.9959 42.4245 28.9959V24.9959C41.3087 24.9959 40.3203 24.813 39.4385 24.4704L37.99 28.199ZM34.3703 25.8964C35.4043 26.9 36.6184 27.6661 37.99 28.199L39.4385 24.4704C38.5407 24.1216 37.7875 23.6388 37.1562 23.0261L34.3703 25.8964ZM31.9603 22.3341C32.5324 23.6954 33.3343 24.8909 34.3703 25.8964L37.1562 23.0261C36.5269 22.4153 36.0226 21.676 35.6478 20.7843L31.9603 22.3341ZM31.0939 17.8367C31.0939 19.4289 31.373 20.9368 31.9603 22.3341L35.6478 20.7843C35.2882 19.9285 35.0939 18.9548 35.0939 17.8367H31.0939ZM31.9773 13.2791C31.3762 14.685 31.0939 16.2145 31.0939 17.8367H35.0939C35.0939 16.6835 35.2931 15.6987 35.6553 14.8515L31.9773 13.2791ZM34.4481 9.72518C33.3843 10.7174 32.5623 11.9109 31.9773 13.2791L35.6553 14.8515C36.0336 13.9666 36.5422 13.2418 37.1764 12.6503L34.4481 9.72518ZM38.1036 7.48842C36.7257 8.0002 35.4999 8.7442 34.4481 9.72518L37.1764 12.6503C37.8226 12.0476 38.5885 11.5753 39.4964 11.2381L38.1036 7.48842ZM42.4979 6.72653C40.958 6.72653 39.4875 6.9744 38.1036 7.48842L39.4964 11.2381C40.3982 10.9031 41.393 10.7265 42.4979 10.7265V6.72653ZM46.7968 7.49706C45.3997 6.98639 43.9635 6.72653 42.4979 6.72653V10.7265C43.4814 10.7265 44.4534 10.8993 45.4236 11.254L46.7968 7.49706ZM50.4874 9.95023C49.5039 8.83558 48.2507 8.02851 46.7968 7.49706L45.4236 11.254C46.337 11.5878 47.0022 12.046 47.4881 12.5967L50.4874 9.95023ZM47.5611 15.5285L50.402 12.6877L47.5735 9.85926L44.7327 12.7001L47.5611 15.5285ZM43.845 14.7646C44.1505 14.89 44.3632 15.062 44.5295 15.2906L47.7644 12.9379C47.147 12.089 46.3311 11.461 45.3632 11.064L43.845 14.7646ZM42.6449 14.5225C43.0465 14.5225 43.4422 14.5994 43.845 14.7646L45.3632 11.064C44.4925 10.7067 43.582 10.5225 42.6449 10.5225V14.5225ZM41.43 14.7572C41.7643 14.61 42.16 14.5225 42.6449 14.5225V10.5225C41.6603 10.5225 40.7091 10.7043 39.819 11.0959L41.43 14.7572ZM40.5087 15.4037C40.7578 15.1361 41.058 14.9208 41.43 14.7572L39.819 11.0959C38.9664 11.471 38.2136 11.9986 37.5811 12.678L40.5087 15.4037ZM39.886 16.4284C40.0453 16.0091 40.2556 15.6755 40.5087 15.4037L37.5811 12.678C36.9526 13.3531 36.4771 14.1379 36.1466 15.0083L39.886 16.4284ZM39.649 17.8367C39.649 17.2848 39.7364 16.8224 39.886 16.4284L36.1466 15.0084C35.8064 15.9041 35.649 16.8539 35.649 17.8367H39.649ZM39.889 19.2896C39.738 18.8871 39.649 18.41 39.649 17.8367H35.649C35.649 18.8308 35.8048 19.7905 36.1436 20.6941L39.889 19.2896ZM40.4973 20.3075C40.259 20.0512 40.0512 19.7222 39.889 19.2896L36.1436 20.6941C36.4712 21.5676 36.9409 22.3569 37.568 23.0313L40.4973 20.3075ZM41.3816 20.9235C41.0221 20.7681 40.7347 20.5629 40.4973 20.3075L37.568 23.0313C38.1958 23.7065 38.9452 24.2279 39.7939 24.5949L41.3816 20.9235ZM42.5714 21.151C42.1009 21.151 41.7129 21.0667 41.3816 20.9235L39.7939 24.5949C40.6708 24.9741 41.6052 25.151 42.5714 25.151V21.151ZM43.8195 20.8914C43.5356 21.0408 43.1402 21.151 42.5714 21.151V25.151C43.6679 25.151 44.7256 24.9347 45.6825 24.4311L43.8195 20.8914ZM44.6208 20.2205C44.4422 20.4691 44.1905 20.6961 43.8195 20.8914L45.6825 24.4311C46.5523 23.9733 47.2966 23.3513 47.8689 22.555L44.6208 20.2205ZM50.5299 22.6742L47.6156 19.9314L44.8742 22.8442L47.7884 25.587L50.5299 22.6742ZM22.6218 25.5742L18.8749 18.6926L15.3619 20.6054L19.1088 27.487L22.6218 25.5742ZM25.7633 24.5306H20.8653V28.5306H25.7633V24.5306ZM19.5257 20.1524L24.0563 27.5728L27.4702 25.4884L22.9396 18.068L19.5257 20.1524ZM22.3127 16.1504C21.965 16.5872 21.4499 16.9535 20.6503 17.1969L21.815 21.0236C23.2685 20.5812 24.5166 19.8046 25.4424 18.6414L22.3127 16.1504ZM22.8327 14.4327C22.8327 15.2268 22.6264 15.7563 22.3127 16.1504L25.4424 18.6414C26.4022 17.4355 26.8327 15.9895 26.8327 14.4327H22.8327ZM22.5251 12.9132C22.6903 13.2077 22.8327 13.6802 22.8327 14.4327H26.8327C26.8327 13.1933 26.5995 12.0005 26.0137 10.9562L22.5251 12.9132ZM21.6741 11.9958C22.0242 12.2231 22.3041 12.5193 22.5251 12.9132L26.0137 10.9562C25.4836 10.0113 24.7595 9.22998 23.8525 8.64099L21.6741 11.9958ZM20.2095 11.4037C20.7836 11.528 21.2648 11.73 21.6741 11.9958L23.8525 8.64099C23.0046 8.09044 22.0654 7.71283 21.0558 7.49427L20.2095 11.4037ZM18.1959 11.1918C18.8903 11.1918 19.5605 11.2632 20.2095 11.4037L21.0558 7.49427C20.1211 7.29191 19.1669 7.19184 18.1959 7.19184V11.1918ZM11.5837 11.1918H18.1959V7.19184H11.5837V11.1918ZM13.5837 26.5306V9.19184H9.58368V26.5306H13.5837ZM15.698 24.5306H11.5837V28.5306H15.698V24.5306ZM13.698 19.649V26.5306H17.698V19.649H13.698ZM17.1184 17.649H15.698V21.649H17.1184V17.649Z" fill="#4A4A4A" mask="url(#path-1-inside-1_305_2)"/>
</svg>
