<svg width="1206" height="477" viewBox="0 0 1206 477" fill="none" xmlns="http://www.w3.org/2000/svg">
<g filter="url(#filter0_di_32_2)">
<path d="M684.959 378.955C671.595 378.955 659.686 376.636 649.232 372C638.777 367.273 630.505 360.318 624.414 351.136C618.414 341.864 615.414 330.318 615.414 316.5C615.414 304.864 617.55 295.091 621.823 287.182C626.095 279.273 631.914 272.909 639.277 268.091C646.641 263.273 655.005 259.636 664.368 257.182C673.823 254.727 683.732 253 694.095 252C706.277 250.727 716.095 249.545 723.55 248.455C731.005 247.273 736.414 245.545 739.777 243.273C743.141 241 744.823 237.636 744.823 233.182V232.364C744.823 223.727 742.095 217.045 736.641 212.318C731.277 207.591 723.641 205.227 713.732 205.227C703.277 205.227 694.959 207.545 688.777 212.182C682.595 216.727 678.505 222.455 676.505 229.364L622.777 225C625.505 212.273 630.868 201.273 638.868 192C646.868 182.636 657.186 175.455 669.823 170.455C682.55 165.364 697.277 162.818 714.005 162.818C725.641 162.818 736.777 164.182 747.414 166.909C758.141 169.636 767.641 173.864 775.914 179.591C784.277 185.318 790.868 192.682 795.686 201.682C800.505 210.591 802.914 221.273 802.914 233.727V375H747.823V345.955H746.186C742.823 352.5 738.323 358.273 732.686 363.273C727.05 368.182 720.277 372.045 712.368 374.864C704.459 377.591 695.323 378.955 684.959 378.955ZM701.595 338.864C710.141 338.864 717.686 337.182 724.232 333.818C730.777 330.364 735.914 325.727 739.641 319.909C743.368 314.091 745.232 307.5 745.232 300.136V277.909C743.414 279.091 740.914 280.182 737.732 281.182C734.641 282.091 731.141 282.955 727.232 283.773C723.323 284.5 719.414 285.182 715.505 285.818C711.595 286.364 708.05 286.864 704.868 287.318C698.05 288.318 692.095 289.909 687.005 292.091C681.914 294.273 677.959 297.227 675.141 300.955C672.323 304.591 670.914 309.136 670.914 314.591C670.914 322.5 673.777 328.545 679.505 332.727C685.323 336.818 692.686 338.864 701.595 338.864ZM828.782 375V165.545H886.873V375H828.782ZM857.964 138.545C849.327 138.545 841.918 135.682 835.736 129.955C829.645 124.136 826.6 117.182 826.6 109.091C826.6 101.091 829.645 94.2273 835.736 88.5C841.918 82.6818 849.327 79.7727 857.964 79.7727C866.6 79.7727 873.964 82.6818 880.055 88.5C886.236 94.2273 889.327 101.091 889.327 109.091C889.327 117.182 886.236 124.136 880.055 129.955C873.964 135.682 866.6 138.545 857.964 138.545ZM972.298 95.7273V375H914.207V95.7273H972.298ZM1095.09 379.091C1073.54 379.091 1055 374.727 1039.45 366C1024 357.182 1012.09 344.727 1003.72 328.636C995.359 312.455 991.177 293.318 991.177 271.227C991.177 249.682 995.359 230.773 1003.72 214.5C1012.09 198.227 1023.86 185.545 1039.04 176.455C1054.31 167.364 1072.22 162.818 1092.77 162.818C1106.59 162.818 1119.45 165.045 1131.36 169.5C1143.36 173.864 1153.81 180.455 1162.72 189.273C1171.72 198.091 1178.72 209.182 1183.72 222.545C1188.72 235.818 1191.22 251.364 1191.22 269.182V285.136H1014.36V249.136H1136.54C1136.54 240.773 1134.72 233.364 1131.09 226.909C1127.45 220.455 1122.4 215.409 1115.95 211.773C1109.59 208.045 1102.18 206.182 1093.72 206.182C1084.9 206.182 1077.09 208.227 1070.27 212.318C1063.54 216.318 1058.27 221.727 1054.45 228.545C1050.63 235.273 1048.68 242.773 1048.59 251.045V285.273C1048.59 295.636 1050.5 304.591 1054.31 312.136C1058.22 319.682 1063.72 325.5 1070.81 329.591C1077.9 333.682 1086.31 335.727 1096.04 335.727C1102.5 335.727 1108.4 334.818 1113.77 333C1119.13 331.182 1123.72 328.455 1127.54 324.818C1131.36 321.182 1134.27 316.727 1136.27 311.455L1190 315C1187.27 327.909 1181.68 339.182 1173.22 348.818C1164.86 358.364 1154.04 365.818 1140.77 371.182C1127.59 376.455 1112.36 379.091 1095.09 379.091Z" fill="white"/>
</g>
<g filter="url(#filter1_d_32_2)">
<path fill-rule="evenodd" clip-rule="evenodd" d="M322.758 0C336.86 0.000130622 349.642 8.23124 355.493 21.0176L355.766 21.6299L527.398 415.553L527.639 416.111C537.648 439.77 520.289 466.11 494.472 466.11H379.398C364.847 466.11 351.725 457.351 346.147 443.909L270.341 266.205C268.954 262.953 264.338 262.968 262.972 266.23L188.593 443.908C183.015 457.35 169.893 466.11 155.342 466.11H40.0394C14.151 466.11 -3.27591 439.602 6.99061 415.835L174.735 21.8193L175.005 21.2021C180.814 8.31631 193.648 2.11291e-05 207.824 0H322.758ZM79.8441 321.965C73.4605 321.965 67.6872 325.759 65.1556 331.619L25.351 423.766C20.788 434.329 28.533 446.11 40.0394 446.11H155.342C161.81 446.11 167.642 442.217 170.12 436.243L208.358 344.097C212.73 333.561 204.987 321.965 193.579 321.965H79.8441ZM341.161 321.965C329.753 321.965 322.01 333.561 326.382 344.097L364.62 436.243C367.098 442.217 372.93 446.11 379.398 446.11H494.472C506.037 446.11 513.782 434.218 509.106 423.641L468.361 331.494C465.799 325.701 460.061 321.965 453.727 321.965H341.161ZM144.062 172.482C137.661 172.482 131.877 176.297 129.356 182.18L89.8646 274.326C85.4107 284.719 92.8448 296.262 104.035 296.62L104.571 296.629H214.793L215.36 296.619C221.006 296.42 226.133 293.252 228.838 288.292L229.101 287.79L259.919 226.218C262.922 220.219 271.53 220.357 274.338 226.449L302.397 287.326C304.929 292.819 310.333 296.4 316.344 296.618L316.928 296.629H428.598L429.137 296.62C440.223 296.263 447.598 284.939 443.442 274.655L443.232 274.158L402.487 182.012C399.925 176.219 394.187 172.483 387.853 172.482H144.062ZM207.824 20C201.423 20 195.639 23.8145 193.118 29.6973L153.626 121.844C149.172 132.237 156.606 143.779 167.796 144.138L168.332 144.146H362.876L363.414 144.138C374.463 143.783 381.838 132.528 377.753 122.256L377.546 121.76L337.428 29.6133C334.887 23.7755 329.125 20.0001 322.758 20H207.824Z" fill="white"/>
</g>
<g filter="url(#filter2_i_32_2)">
<path d="M193.579 321.965C204.986 321.965 212.73 333.561 208.358 344.097L170.12 436.243C167.641 442.217 161.81 446.11 155.342 446.11H40.0392C28.5328 446.11 20.7878 434.329 25.3507 423.766L65.1554 331.619C67.6869 325.759 73.4601 321.965 79.8438 321.965H193.579ZM453.727 321.965C460.061 321.965 465.799 325.701 468.36 331.494L509.106 423.641C513.782 434.218 506.037 446.11 494.472 446.11H379.398C372.93 446.11 367.098 442.217 364.619 436.243L326.382 344.097C322.01 333.561 329.753 321.965 341.16 321.965H453.727Z" fill="#314C67"/>
</g>
<g filter="url(#filter3_i_32_2)">
<path d="M129.355 182.179C131.876 176.297 137.661 172.482 144.061 172.482H387.852C394.186 172.482 399.924 176.219 402.486 182.012L443.231 274.158C447.908 284.736 440.163 296.629 428.597 296.629H316.927C310.684 296.629 305.01 292.996 302.397 287.326L274.338 226.449C271.53 220.357 262.921 220.218 259.918 226.217L229.1 287.79C226.389 293.207 220.85 296.629 214.792 296.629H104.57C93.0833 296.629 85.3388 284.884 89.8636 274.326L129.355 182.179Z" fill="#21364A"/>
</g>
<g filter="url(#filter4_i_32_2)">
<path d="M193.117 29.6973C195.638 23.8143 201.423 20 207.823 20H322.758C329.125 20 334.886 23.7752 337.428 29.6131L377.546 121.759C382.147 132.327 374.402 144.146 362.876 144.146H168.332C156.845 144.146 149.101 132.402 153.625 121.844L193.117 29.6973Z" fill="#0F1A24"/>
</g>
<g filter="url(#filter5_d_32_2)">
<path fill-rule="evenodd" clip-rule="evenodd" d="M322.758 2C336.86 2.00013 349.642 10.2312 355.493 23.0176L355.766 23.6299L527.398 417.553L527.639 418.111C537.648 441.77 520.289 468.11 494.472 468.11H379.398C364.847 468.11 351.725 459.351 346.147 445.909L270.341 268.205C268.954 264.953 264.338 264.968 262.972 268.23L188.593 445.908C183.015 459.35 169.893 468.11 155.342 468.11H40.0394C14.151 468.11 -3.27591 441.602 6.99061 417.835L174.735 23.8193L175.005 23.2021C180.814 10.3163 193.648 2.00002 207.824 2H322.758ZM79.8441 323.965C73.4605 323.965 67.6872 327.759 65.1556 333.619L25.351 425.766C20.788 436.329 28.533 448.11 40.0394 448.11H155.342C161.81 448.11 167.642 444.217 170.12 438.243L208.358 346.097C212.73 335.561 204.987 323.965 193.579 323.965H79.8441ZM341.161 323.965C329.753 323.965 322.01 335.561 326.382 346.097L364.62 438.243C367.098 444.217 372.93 448.11 379.398 448.11H494.472C506.037 448.11 513.782 436.218 509.106 425.641L468.361 333.494C465.799 327.701 460.061 323.965 453.727 323.965H341.161ZM144.062 174.482C137.661 174.482 131.877 178.297 129.356 184.18L89.8646 276.326C85.4107 286.719 92.8448 298.262 104.035 298.62L104.571 298.629H214.793L215.36 298.619C221.006 298.42 226.133 295.252 228.838 290.292L229.101 289.79L259.919 228.218C262.922 222.219 271.53 222.357 274.338 228.449L302.397 289.326C304.929 294.819 310.333 298.4 316.344 298.618L316.928 298.629H428.598L429.137 298.62C440.223 298.263 447.598 286.939 443.442 276.655L443.232 276.158L402.487 184.012C399.925 178.219 394.187 174.483 387.853 174.482H144.062ZM207.824 22C201.423 22 195.639 25.8145 193.118 31.6973L153.626 123.844C149.172 134.237 156.606 145.779 167.796 146.138L168.332 146.146H362.876L363.414 146.138C374.463 145.783 381.838 134.528 377.753 124.256L377.546 123.76L337.428 31.6133C334.887 25.7755 329.125 22.0001 322.758 22H207.824Z" fill="white"/>
</g>
<g filter="url(#filter6_i_32_2)">
<path d="M193.579 323.965C204.986 323.965 212.73 335.561 208.358 346.097L170.12 438.243C167.641 444.217 161.81 448.11 155.342 448.11H40.0392C28.5328 448.11 20.7878 436.329 25.3507 425.766L65.1554 333.619C67.6869 327.759 73.4601 323.965 79.8438 323.965H193.579ZM453.727 323.965C460.061 323.965 465.799 327.701 468.36 333.494L509.106 425.641C513.782 436.218 506.037 448.11 494.472 448.11H379.398C372.93 448.11 367.098 444.217 364.619 438.243L326.382 346.097C322.01 335.561 329.753 323.965 341.16 323.965H453.727Z" fill="#124486"/>
</g>
<g filter="url(#filter7_i_32_2)">
<path d="M129.355 184.179C131.876 178.297 137.661 174.482 144.061 174.482H387.852C394.186 174.482 399.924 178.219 402.486 184.012L443.231 276.158C447.908 286.736 440.163 298.629 428.597 298.629H316.927C310.684 298.629 305.01 294.996 302.397 289.326L274.338 228.449C271.53 222.357 262.921 222.218 259.918 228.217L229.1 289.79C226.389 295.207 220.85 298.629 214.792 298.629H104.57C93.0833 298.629 85.3388 286.884 89.8636 276.326L129.355 184.179Z" fill="#1A73E8"/>
</g>
<g filter="url(#filter8_i_32_2)">
<path d="M193.117 31.6973C195.638 25.8143 201.423 22 207.823 22H322.758C329.125 22 334.886 25.7752 337.428 31.6131L377.546 123.759C382.147 134.327 374.402 146.146 362.876 146.146H168.332C156.845 146.146 149.101 134.402 153.625 123.844L193.117 31.6973Z" fill="#00D8EC"/>
</g>
<defs>
<filter id="filter0_di_32_2" x="611.414" y="79.7727" width="583.809" height="307.318" filterUnits="userSpaceOnUse" color-interpolation-filters="sRGB">
<feFlood flood-opacity="0" result="BackgroundImageFix"/>
<feColorMatrix in="SourceAlpha" type="matrix" values="0 0 0 0 0 0 0 0 0 0 0 0 0 0 0 0 0 0 127 0" result="hardAlpha"/>
<feOffset dy="4"/>
<feGaussianBlur stdDeviation="2"/>
<feComposite in2="hardAlpha" operator="out"/>
<feColorMatrix type="matrix" values="0 0 0 0 0 0 0 0 0 0 0 0 0 0 0 0 0 0 0.25 0"/>
<feBlend mode="normal" in2="BackgroundImageFix" result="effect1_dropShadow_32_2"/>
<feBlend mode="normal" in="SourceGraphic" in2="effect1_dropShadow_32_2" result="shape"/>
<feColorMatrix in="SourceAlpha" type="matrix" values="0 0 0 0 0 0 0 0 0 0 0 0 0 0 0 0 0 0 127 0" result="hardAlpha"/>
<feOffset dy="4"/>
<feGaussianBlur stdDeviation="2"/>
<feComposite in2="hardAlpha" operator="arithmetic" k2="-1" k3="1"/>
<feColorMatrix type="matrix" values="0 0 0 0 0 0 0 0 0 0 0 0 0 0 0 0 0 0 0.25 0"/>
<feBlend mode="normal" in2="shape" result="effect2_innerShadow_32_2"/>
</filter>
<filter id="filter1_d_32_2" x="0" y="0" width="534.513" height="474.11" filterUnits="userSpaceOnUse" color-interpolation-filters="sRGB">
<feFlood flood-opacity="0" result="BackgroundImageFix"/>
<feColorMatrix in="SourceAlpha" type="matrix" values="0 0 0 0 0 0 0 0 0 0 0 0 0 0 0 0 0 0 127 0" result="hardAlpha"/>
<feOffset dy="4"/>
<feGaussianBlur stdDeviation="2"/>
<feComposite in2="hardAlpha" operator="out"/>
<feColorMatrix type="matrix" values="0 0 0 0 0 0 0 0 0 0 0 0 0 0 0 0 0 0 0.25 0"/>
<feBlend mode="normal" in2="BackgroundImageFix" result="effect1_dropShadow_32_2"/>
<feBlend mode="normal" in="SourceGraphic" in2="effect1_dropShadow_32_2" result="shape"/>
</filter>
<filter id="filter2_i_32_2" x="24.0215" y="321.965" width="486.469" height="128.146" filterUnits="userSpaceOnUse" color-interpolation-filters="sRGB">
<feFlood flood-opacity="0" result="BackgroundImageFix"/>
<feBlend mode="normal" in="SourceGraphic" in2="BackgroundImageFix" result="shape"/>
<feColorMatrix in="SourceAlpha" type="matrix" values="0 0 0 0 0 0 0 0 0 0 0 0 0 0 0 0 0 0 127 0" result="hardAlpha"/>
<feOffset dy="4"/>
<feGaussianBlur stdDeviation="2"/>
<feComposite in2="hardAlpha" operator="arithmetic" k2="-1" k3="1"/>
<feColorMatrix type="matrix" values="0 0 0 0 0 0 0 0 0 0 0 0 0 0 0 0 0 0 0.25 0"/>
<feBlend mode="normal" in2="shape" result="effect1_innerShadow_32_2"/>
</filter>
<filter id="filter3_i_32_2" x="88.5527" y="172.482" width="356.062" height="128.146" filterUnits="userSpaceOnUse" color-interpolation-filters="sRGB">
<feFlood flood-opacity="0" result="BackgroundImageFix"/>
<feBlend mode="normal" in="SourceGraphic" in2="BackgroundImageFix" result="shape"/>
<feColorMatrix in="SourceAlpha" type="matrix" values="0 0 0 0 0 0 0 0 0 0 0 0 0 0 0 0 0 0 127 0" result="hardAlpha"/>
<feOffset dy="4"/>
<feGaussianBlur stdDeviation="2"/>
<feComposite in2="hardAlpha" operator="arithmetic" k2="-1" k3="1"/>
<feColorMatrix type="matrix" values="0 0 0 0 0 0 0 0 0 0 0 0 0 0 0 0 0 0 0.25 0"/>
<feBlend mode="normal" in2="shape" result="effect1_innerShadow_32_2"/>
</filter>
<filter id="filter4_i_32_2" x="152.314" y="20" width="226.579" height="128.146" filterUnits="userSpaceOnUse" color-interpolation-filters="sRGB">
<feFlood flood-opacity="0" result="BackgroundImageFix"/>
<feBlend mode="normal" in="SourceGraphic" in2="BackgroundImageFix" result="shape"/>
<feColorMatrix in="SourceAlpha" type="matrix" values="0 0 0 0 0 0 0 0 0 0 0 0 0 0 0 0 0 0 127 0" result="hardAlpha"/>
<feOffset dy="4"/>
<feGaussianBlur stdDeviation="2"/>
<feComposite in2="hardAlpha" operator="arithmetic" k2="-1" k3="1"/>
<feColorMatrix type="matrix" values="0 0 0 0 0 0 0 0 0 0 0 0 0 0 0 0 0 0 0.25 0"/>
<feBlend mode="normal" in2="shape" result="effect1_innerShadow_32_2"/>
</filter>
<filter id="filter5_d_32_2" x="0" y="2" width="534.513" height="474.11" filterUnits="userSpaceOnUse" color-interpolation-filters="sRGB">
<feFlood flood-opacity="0" result="BackgroundImageFix"/>
<feColorMatrix in="SourceAlpha" type="matrix" values="0 0 0 0 0 0 0 0 0 0 0 0 0 0 0 0 0 0 127 0" result="hardAlpha"/>
<feOffset dy="4"/>
<feGaussianBlur stdDeviation="2"/>
<feComposite in2="hardAlpha" operator="out"/>
<feColorMatrix type="matrix" values="0 0 0 0 0 0 0 0 0 0 0 0 0 0 0 0 0 0 0.25 0"/>
<feBlend mode="normal" in2="BackgroundImageFix" result="effect1_dropShadow_32_2"/>
<feBlend mode="normal" in="SourceGraphic" in2="effect1_dropShadow_32_2" result="shape"/>
</filter>
<filter id="filter6_i_32_2" x="24.0215" y="323.965" width="486.469" height="128.146" filterUnits="userSpaceOnUse" color-interpolation-filters="sRGB">
<feFlood flood-opacity="0" result="BackgroundImageFix"/>
<feBlend mode="normal" in="SourceGraphic" in2="BackgroundImageFix" result="shape"/>
<feColorMatrix in="SourceAlpha" type="matrix" values="0 0 0 0 0 0 0 0 0 0 0 0 0 0 0 0 0 0 127 0" result="hardAlpha"/>
<feOffset dy="4"/>
<feGaussianBlur stdDeviation="2"/>
<feComposite in2="hardAlpha" operator="arithmetic" k2="-1" k3="1"/>
<feColorMatrix type="matrix" values="0 0 0 0 0 0 0 0 0 0 0 0 0 0 0 0 0 0 0.25 0"/>
<feBlend mode="normal" in2="shape" result="effect1_innerShadow_32_2"/>
</filter>
<filter id="filter7_i_32_2" x="88.5527" y="174.482" width="356.062" height="128.146" filterUnits="userSpaceOnUse" color-interpolation-filters="sRGB">
<feFlood flood-opacity="0" result="BackgroundImageFix"/>
<feBlend mode="normal" in="SourceGraphic" in2="BackgroundImageFix" result="shape"/>
<feColorMatrix in="SourceAlpha" type="matrix" values="0 0 0 0 0 0 0 0 0 0 0 0 0 0 0 0 0 0 127 0" result="hardAlpha"/>
<feOffset dy="4"/>
<feGaussianBlur stdDeviation="2"/>
<feComposite in2="hardAlpha" operator="arithmetic" k2="-1" k3="1"/>
<feColorMatrix type="matrix" values="0 0 0 0 0 0 0 0 0 0 0 0 0 0 0 0 0 0 0.25 0"/>
<feBlend mode="normal" in2="shape" result="effect1_innerShadow_32_2"/>
</filter>
<filter id="filter8_i_32_2" x="152.314" y="22" width="226.579" height="128.146" filterUnits="userSpaceOnUse" color-interpolation-filters="sRGB">
<feFlood flood-opacity="0" result="BackgroundImageFix"/>
<feBlend mode="normal" in="SourceGraphic" in2="BackgroundImageFix" result="shape"/>
<feColorMatrix in="SourceAlpha" type="matrix" values="0 0 0 0 0 0 0 0 0 0 0 0 0 0 0 0 0 0 127 0" result="hardAlpha"/>
<feOffset dy="4"/>
<feGaussianBlur stdDeviation="2"/>
<feComposite in2="hardAlpha" operator="arithmetic" k2="-1" k3="1"/>
<feColorMatrix type="matrix" values="0 0 0 0 0 0 0 0 0 0 0 0 0 0 0 0 0 0 0.25 0"/>
<feBlend mode="normal" in2="shape" result="effect1_innerShadow_32_2"/>
</filter>
</defs>
</svg>
