<svg width="1080" height="1080" viewBox="0 0 1080 1080" fill="none" xmlns="http://www.w3.org/2000/svg">
<rect width="1080" height="1080" fill="#2C2C2C"/>
<path fill-rule="evenodd" clip-rule="evenodd" d="M187.918 807L331.64 273H251.722L108 807H187.918ZM973 273L829.278 807H749.36L893.082 273H973ZM364 317V763.016H458.29V604.907L527.5 605L611.594 763.016C611.594 763.016 702.954 765.063 715.684 763.016L620.5 589C644.744 577.675 667.849 560.334 680.624 539.137C693.399 517.794 699.787 492.314 699.787 462.696C699.787 433.223 693.472 407.597 680.842 385.819C668.357 363.896 650.138 346.981 626.184 335.076C602.375 323.025 573.631 317 539.951 317H364ZM505.314 485.18L501.258 548H544.905L540.686 485.18L593.258 520.405L615 482.095L558.534 454.5L615 426.905L593.258 388.595L540.686 423.82L544.905 361H501.258L505.314 423.82L452.742 388.595L431 426.905L487.628 454.5L431 482.095L452.742 520.405L505.314 485.18Z" fill="white"/>
</svg>
