<svg width="963" height="488" viewBox="0 0 963 488" fill="none" xmlns="http://www.w3.org/2000/svg">
<g filter="url(#filter0_d_2401_3)">
<path fill-rule="evenodd" clip-rule="evenodd" d="M298.314 237.701L729.292 238.065H963L729.292 477.582H514.454L298.314 237.701Z" fill="#F16529"/>
<path fill-rule="evenodd" clip-rule="evenodd" d="M298.314 237.701L514.454 477.582H729.292L963 238.065L298.314 237.701ZM894.109 267.098L922.355 238.043L335.907 237.721L363.602 266.788L527.374 448.55H717.057L894.109 267.098Z" fill="#E44D26"/>
<path d="M573.88 253.58C533.84 253.58 507.88 272.94 507.88 303.74C507.88 357.86 587.74 344.66 587.74 364.68C587.74 370.18 582.9 372.6 575.42 372.6C559.8 372.6 532.52 361.82 516.68 348.62L497.76 386.9C518.22 402.52 548.14 411.54 574.98 411.54C609.74 411.54 639.88 396.36 639.88 362.04C639.88 306.16 560.02 318.26 560.02 298.9C560.02 294.28 563.76 292.52 569.48 292.52C582.9 292.52 606.88 301.98 622.5 310.56L640.98 271.84C623.6 260.84 598.3 253.58 573.88 253.58Z" fill="white"/>
<path d="M648.694 255.78V410H699.734V369.96H721.074C761.114 369.96 784.214 348.4 784.214 311C784.214 275.8 761.114 255.78 721.074 255.78H648.694ZM699.734 294.5H718.434C729.434 294.5 735.814 301.1 735.814 312.54C735.814 324.42 729.434 331.24 718.434 331.24H699.734V294.5Z" fill="white"/>
<path fill-rule="evenodd" clip-rule="evenodd" d="M298.308 0H514.448L729.285 238.065L298.308 237.7L63 238.193L298.308 0Z" fill="#E44D26"/>
<path d="M366.82 238V83.78H315.78V143.62H268.04V83.78H217V238H268.04V182.34H315.78V238H366.82Z" fill="black"/>
<path d="M513.395 124.04V83.78H374.575V124.04H418.355V238H469.395V124.04H513.395Z" fill="black"/>
<path d="M696.133 238V83.78H642.233L608.573 164.3L574.913 83.78H521.013V238H565.453V153.52L591.853 223.04H625.293L651.693 153.52V238H696.133Z" fill="black"/>
<path d="M754.879 195.54V83.78H703.839V238H819.119V195.54H754.879Z" fill="black"/>
</g>
<defs>
<filter id="filter0_d_2401_3" x="0" y="0" width="963" height="487.582" filterUnits="userSpaceOnUse" color-interpolation-filters="sRGB">
<feFlood flood-opacity="0" result="BackgroundImageFix"/>
<feColorMatrix in="SourceAlpha" type="matrix" values="0 0 0 0 0 0 0 0 0 0 0 0 0 0 0 0 0 0 127 0" result="hardAlpha"/>
<feOffset dx="-63" dy="10"/>
<feComposite in2="hardAlpha" operator="out"/>
<feColorMatrix type="matrix" values="0 0 0 0 0 0 0 0 0 0 0 0 0 0 0 0 0 0 1 0"/>
<feBlend mode="normal" in2="BackgroundImageFix" result="effect1_dropShadow_2401_3"/>
<feBlend mode="normal" in="SourceGraphic" in2="effect1_dropShadow_2401_3" result="shape"/>
</filter>
</defs>
</svg>
