<svg width="900" height="478" viewBox="0 0 900 478" fill="none" xmlns="http://www.w3.org/2000/svg">
<path fill-rule="evenodd" clip-rule="evenodd" d="M235.314 237.701L666.292 238.065H900L666.292 477.582H451.454L235.314 237.701Z" fill="#F16529"/>
<path fill-rule="evenodd" clip-rule="evenodd" d="M235.314 237.701L451.454 477.582H666.292L900 238.065L235.314 237.701ZM831.109 267.098L859.355 238.043L272.907 237.721L300.602 266.788L464.374 448.55H654.057L831.109 267.098Z" fill="#E44D26"/>
<path d="M510.88 253.58C470.84 253.58 444.88 272.94 444.88 303.74C444.88 357.86 524.74 344.66 524.74 364.68C524.74 370.18 519.9 372.6 512.42 372.6C496.8 372.6 469.52 361.82 453.68 348.62L434.76 386.9C455.22 402.52 485.14 411.54 511.98 411.54C546.74 411.54 576.88 396.36 576.88 362.04C576.88 306.16 497.02 318.26 497.02 298.9C497.02 294.28 500.76 292.52 506.48 292.52C519.9 292.52 543.88 301.98 559.5 310.56L577.98 271.84C560.6 260.84 535.3 253.58 510.88 253.58ZM585.694 255.78V410H636.734V369.96H658.074C698.114 369.96 721.214 348.4 721.214 311C721.214 275.8 698.114 255.78 658.074 255.78H585.694ZM636.734 294.5H655.434C666.434 294.5 672.814 301.1 672.814 312.54C672.814 324.42 666.434 331.24 655.434 331.24H636.734V294.5Z" fill="white"/>
<path fill-rule="evenodd" clip-rule="evenodd" d="M235.308 0H451.448L666.285 238.065L235.308 237.7L0 238.193L235.308 0Z" fill="#E44D26"/>
<path d="M303.82 238V83.78H252.78V143.62H205.04V83.78H154V238H205.04V182.34H252.78V238H303.82ZM450.395 124.04V83.78H311.575V124.04H355.355V238H406.395V124.04H450.395ZM633.133 238V83.78H579.233L545.573 164.3L511.913 83.78H458.013V238H502.453V153.52L528.853 223.04H562.293L588.693 153.52V238H633.133ZM701.879 195.54V83.78H650.839V238H766.119V195.54H701.879Z" fill="black"/>
</svg>
